<svg version="1" xmlns="http://www.w3.org/2000/svg" viewBox="0 0 373 283"><defs><filter id="a" x="-15%" y="-20%" width="200%" height="200%"><feOffset result="offOut" in="SourceAlpha" dy="5"/><feColorMatrix result="matrixOut" in="offOut" values="0 0 0 0 0 0 0 0 0 0 0 0 0 0 0 0 0 0 0.5 0"/><feGaussianBlur result="blurOut" in="matrixOut" stdDeviation="8"/><feBlend in="SourceGraphic" in2="blurOut"/></filter></defs><path fill="#003760" d="M-2.5-2.71h378v288.16h-378z"/><path fill="#002A4F" d="M375.5-2.71v25.72c-1.86.42-3.71.91-5.55 1.47-28.8 8.77-49.71 33.79-64.67 59.95-14.95 26.17-25.82 54.8-43.82 78.97-11.4 15.32-26.61 29.16-45.34 32.77-33.37 6.42-62.85-20.37-87.89-43.38C91.76 119.28 45.48 88.01-2.5 90.71V-2.71h378zM352.73 254.31c-.7 10.53-1.47 21.3-5.06 31.14h-77.93c-4.13-19.49-6.04-39.41.79-57.79 6.07-16.35 39.6-15.72 53.68-13.73 8.94 1.26 18.31 4.33 23.68 11.6 5.91 7.99 5.5 18.86 4.84 28.78zM108.41 257.83c-.77 1.46-1.72 2.85-2.84 4.15-7.7 8.89-16.49 16.75-26.08 23.47H-2.5v-16.82c28.26-1.33 55.99-14.26 74.6-35.75 8.02-9.26 22.01-10.26 31.26-2.22 7.94 6.91 9.79 18.24 5.05 27.17z"/><path fill="none" d="M0-2.55h373v287.84H0z"/><g><g fill="none" stroke="#FFF" stroke-width="2.95" stroke-linecap="round" stroke-miterlimit="10"><path d="M186.5 25.31"/><path stroke-dasharray="0,5.851" d="M186.5 31.16v219.41"/><path d="M186.5 253.5"/></g><g filter="url(#a)"><path fill="#F2F5F7" d="M151.49 68.35V197.7c0 4.78-3.85 8.65-8.6 8.65H35.49v-138h116z"/><path fill="#C8D3D9" d="M137.09 89.58H45.43v-2.24c0-1.1.9-2 2-2h91.67v2.24c-.01 1.1-.9 2-2.01 2zM137.09 140.96H45.43v-2.24c0-1.1.9-2 2-2h91.67v2.24c-.01 1.11-.9 2-2.01 2zM137.09 151.24H94.97V149c0-1.1.9-2 2-2h42.13v2.24c-.01 1.1-.9 2-2.01 2zM137.09 161.51H94.97v-2.24c0-1.1.9-2 2-2h42.13v2.24c-.01 1.11-.9 2-2.01 2zM137.09 171.79H94.97v-2.24c0-1.1.9-2 2-2h42.13v2.24c-.01 1.1-.9 2-2.01 2zM87.55 99.86H45.43v-2.24c0-1.1.9-2 2-2h42.13v2.24c-.01 1.1-.9 2-2.01 2zM87.55 110.13H45.43v-2.24c0-1.1.9-2 2-2h42.13v2.24c-.01 1.11-.9 2-2.01 2zM87.55 120.41H45.43v-2.24c0-1.1.9-2 2-2h42.13v2.24c-.01 1.1-.9 2-2.01 2zM87.55 130.68H45.43v-2.24c0-1.1.9-2 2-2h42.13v2.24c-.01 1.11-.9 2-2.01 2zM137.09 182.07H94.97v-2.24c0-1.1.9-2 2-2h42.13v2.24c-.01 1.1-.9 2-2.01 2zM137.09 192.34H45.43v-2.24c0-1.1.9-2 2-2h91.67v2.24c-.01 1.11-.9 2-2.01 2z"/><path fill="#0DA1DA" d="M48.33 149.92h38.74v27.1H48.33z"/><path fill="#F2F5F7" d="M88.5 169.45v9.7h-41l-1-6.7 11.68-10.61 8.47 8.39 10.87-13.31z"/><ellipse fill="#F2F5F7" cx="65.83" cy="157.96" rx="2.62" ry="2.64"/><path fill="#E3E9EC" d="M138.932 95.622v35.06h-44.55v-35.06z"/><path fill="#0DA1DA" d="M97.29 98.54h38.74v29.22H97.29z"/><path fill="#E3E9EC" d="M115.96 122.37c-5.05 0-9.16-4.13-9.16-9.21s4.11-9.21 9.16-9.21 9.16 4.13 9.16 9.21-4.11 9.21-9.16 9.21z"/><ellipse fill="#E40521" cx="115.96" cy="113.15" rx="7.82" ry="7.87"/><path fill="#F2F5F7" d="M114.06 113.15v-3.01l2.6 1.5 2.6 1.51-2.6 1.51-2.6 1.51z"/><path fill="#E3E9EC" d="M85.98 151v27.06H49.43V151h36.55m4-4H45.43v35.06h44.55V147z"/></g><path fill="#E3E9EC" d="M339.42 205.36h-128V68.73h136v128.62c0 4.42-3.58 8.01-8 8.01z" filter="url(#a)"/><path fill="#C8D3D9" d="M211.42 68.36h136v13.27h-136z"/><g fill="#AEBCC5"><circle cx="220.58" cy="74.99" r="2.49"/><circle cx="229.29" cy="74.99" r="2.49"/><circle cx="238" cy="74.99" r="2.49"/></g><path fill="#E3E9EC" d="M338.79 77.48h-90.88V74.5c0-1.1.9-2 2-2h90.88v2.98c0 1.11-.89 2-2 2z"/><path fill="#F2F5F7" d="M334.16 196.68h-116.1V81.63h122.73v108.42c0 3.66-2.97 6.63-6.63 6.63z"/><g fill="#003760"><path d="M228.27 98.54l4.81 2.66c.24.13.4.26.48.36s.12.24.12.41c0 .21-.07.39-.22.54-.15.15-.32.23-.52.23-.13 0-.33-.07-.59-.22l-7.16-3.98 7.16-3.98c.26-.14.45-.21.58-.21.2 0 .38.08.53.22.15.15.22.33.22.54 0 .16-.04.3-.12.41s-.24.23-.48.36l-4.81 2.66zM237.2 93.38v3.16c.31-.18.62-.32.94-.41.32-.09.64-.13.96-.13.51 0 .97.09 1.37.26.4.17.73.45 1 .82.26.38.39.85.39 1.42v2.79c.38 0 .62.04.74.11.23.15.35.36.35.64 0 .22-.07.39-.22.53s-.4.21-.76.21h-1.69c-.35 0-.6-.07-.76-.21a.71.71 0 0 1-.23-.54c0-.27.12-.48.35-.63.12-.08.37-.11.74-.11V98.6c0-.38-.09-.65-.26-.8-.23-.21-.56-.31-1.01-.31-.33 0-.62.06-.87.19s-.59.41-1.02.83v2.78c.38 0 .63.04.74.11.24.15.35.36.35.64 0 .22-.08.39-.23.53-.15.14-.41.21-.76.21h-1.69c-.36 0-.61-.07-.76-.21a.71.71 0 0 1-.23-.54c0-.27.12-.48.35-.63.12-.08.36-.11.74-.11v-6.42h-.25c-.36 0-.61-.07-.76-.21a.71.71 0 0 1-.23-.54c0-.22.08-.4.23-.53.15-.14.41-.21.76-.21h1.72zM246.7 97.68v2.98c0 .32.07.53.2.63.2.16.56.24 1.09.24.76 0 1.46-.16 2.1-.49.25-.13.44-.19.58-.19.19 0 .36.07.5.22.14.14.21.32.21.53 0 .19-.08.36-.23.5-.24.23-.7.44-1.4.63s-1.28.29-1.76.29c-.92 0-1.61-.2-2.07-.6-.46-.4-.69-.89-.69-1.47v-3.27h-.54c-.36 0-.61-.07-.76-.21a.71.71 0 0 1-.23-.54c0-.22.08-.39.23-.53.15-.14.41-.21.76-.21h.54v-1.34c0-.36.07-.61.21-.76a.71.71 0 0 1 .54-.23c.22 0 .39.08.53.23.14.15.21.41.21.76v1.34h2.74c.36 0 .61.07.76.21.15.14.23.32.23.54 0 .22-.08.4-.23.53-.15.14-.41.21-.76.21h-2.76zM254.33 96.19v.42c.24-.24.46-.4.65-.49.2-.09.42-.13.68-.13.22 0 .43.05.64.16.21.11.42.26.62.48.26-.21.52-.37.78-.47.26-.1.53-.15.81-.15.55 0 1 .15 1.34.44.45.39.68.89.68 1.52v3.32c.31 0 .54.07.69.21.15.14.22.32.22.54 0 .22-.07.39-.22.53s-.4.21-.76.21h-1.41V98.1c0-.23-.04-.38-.12-.47s-.21-.13-.38-.13c-.16 0-.32.04-.46.13-.18.12-.4.35-.65.68v2.99c.31 0 .54.07.69.21.15.14.22.32.22.54 0 .22-.07.39-.22.53s-.4.21-.76.21h-1.41v-4.68c0-.22-.04-.38-.13-.47-.08-.09-.21-.13-.38-.13s-.35.06-.51.16c-.17.11-.37.33-.61.65v2.99c.31 0 .54.07.69.21.15.14.23.32.23.54 0 .22-.08.39-.23.53-.15.14-.41.21-.76.21h-1.34c-.36 0-.61-.07-.76-.21a.71.71 0 0 1-.23-.54c0-.22.07-.4.22-.53.15-.14.38-.21.69-.21V97.7c-.31 0-.54-.07-.69-.21-.15-.14-.22-.32-.22-.54s.08-.39.23-.53c.15-.14.41-.21.76-.21h1.41zM266.61 93.38v7.91h1.78c.36 0 .61.07.76.21.15.14.23.32.23.54 0 .22-.08.39-.23.53-.15.14-.41.21-.76.21h-5.04c-.36 0-.61-.07-.76-.21a.71.71 0 0 1-.23-.54c0-.22.08-.4.23-.53.15-.14.41-.21.76-.21h1.78v-6.42h-1.19c-.35 0-.61-.07-.76-.21a.71.71 0 0 1-.23-.54c0-.22.08-.4.23-.53.15-.14.41-.21.76-.21h2.67zM276.05 98.54l-4.81-2.66c-.24-.13-.4-.26-.48-.36a.665.665 0 0 1-.12-.41c0-.21.07-.39.22-.54s.33-.22.53-.22c.13 0 .32.07.58.21l7.16 3.98-7.16 3.98c-.26.14-.45.22-.58.22-.2 0-.38-.08-.53-.22a.732.732 0 0 1-.22-.54c0-.16.04-.3.12-.41.08-.11.24-.23.48-.36l4.81-2.67zM228.27 179l4.81 2.66c.24.13.4.26.48.36.08.11.12.24.12.41 0 .21-.07.39-.22.54-.15.15-.32.23-.52.23-.13 0-.33-.07-.59-.22l-7.16-3.98 7.16-3.98c.26-.14.45-.21.58-.21.2 0 .38.08.53.22.15.15.22.33.22.54 0 .16-.04.3-.12.41s-.24.23-.48.36l-4.81 2.66zM240.93 174.03l-4.75 10.25c-.12.26-.23.42-.33.5-.13.1-.28.15-.46.15-.2 0-.38-.07-.52-.22s-.22-.31-.22-.49c0-.13.06-.32.17-.57l4.77-10.24c.12-.26.23-.42.32-.5.13-.1.28-.15.46-.15.2 0 .38.07.52.21.14.14.22.3.22.49 0 .13-.06.32-.18.57zM244.92 173.84V177c.31-.18.62-.32.94-.41.32-.09.64-.13.96-.13.51 0 .97.09 1.37.26.4.17.73.45 1 .82.26.38.39.85.39 1.42v2.79c.38 0 .62.04.74.11.23.15.35.36.35.64 0 .22-.07.39-.22.53s-.4.21-.76.21H248c-.35 0-.6-.07-.76-.21a.71.71 0 0 1-.23-.54c0-.27.12-.48.35-.63.12-.08.37-.11.74-.11v-2.69c0-.38-.09-.65-.26-.8-.23-.21-.56-.31-1.01-.31-.33 0-.62.06-.87.19s-.59.41-1.02.83v2.78c.38 0 .63.04.74.11.24.15.35.36.35.64 0 .22-.08.39-.23.53-.15.14-.41.21-.76.21h-1.69c-.36 0-.61-.07-.76-.21a.71.71 0 0 1-.23-.54c0-.27.12-.48.35-.63.12-.08.36-.11.74-.11v-6.42h-.25c-.36 0-.61-.07-.76-.21a.71.71 0 0 1-.23-.54c0-.22.08-.4.23-.53.15-.14.41-.21.76-.21h1.72zM254.42 178.14v2.98c0 .32.07.53.2.63.2.16.56.24 1.09.24.76 0 1.46-.16 2.1-.49.25-.13.44-.19.58-.19.19 0 .36.07.5.22.14.14.21.32.21.53 0 .19-.08.36-.23.5-.24.23-.7.44-1.4.63s-1.28.29-1.76.29c-.92 0-1.61-.2-2.07-.6-.46-.4-.69-.89-.69-1.47v-3.27h-.54c-.36 0-.61-.07-.76-.21a.71.71 0 0 1-.23-.54c0-.22.08-.39.23-.53.15-.14.41-.21.76-.21h.54v-1.34c0-.36.07-.61.21-.76a.71.71 0 0 1 .54-.23c.22 0 .39.08.53.23.14.15.21.41.21.76v1.34h2.74c.36 0 .61.07.76.21.15.14.23.32.23.54 0 .22-.08.4-.23.53-.15.14-.41.21-.76.21h-2.76zM262.05 176.65v.42c.24-.24.46-.4.65-.49.2-.09.42-.13.68-.13.22 0 .43.05.64.16s.42.26.62.48c.26-.21.52-.37.78-.47.26-.1.53-.15.81-.15.55 0 1 .15 1.34.44.45.39.68.89.68 1.52v3.32c.31 0 .54.07.69.21.15.14.22.32.22.54s-.07.39-.22.53-.4.21-.76.21h-1.41v-4.68c0-.23-.04-.38-.12-.47-.08-.09-.21-.13-.38-.13-.16 0-.32.04-.46.13-.18.12-.4.35-.65.68v2.99c.31 0 .54.07.69.21.15.14.22.32.22.54s-.07.39-.22.53-.4.21-.76.21h-1.41v-4.68c0-.22-.04-.38-.13-.47-.08-.09-.21-.13-.38-.13s-.35.06-.51.16c-.17.11-.37.33-.61.65v2.99c.31 0 .54.07.69.21s.23.32.23.54-.08.39-.23.53c-.15.14-.41.21-.76.21h-1.34c-.36 0-.61-.07-.76-.21a.71.71 0 0 1-.23-.54c0-.22.07-.4.22-.53.15-.14.38-.21.69-.21v-3.61c-.31 0-.54-.07-.69-.21a.702.702 0 0 1-.22-.54c0-.22.08-.39.23-.53.15-.14.41-.21.76-.21h1.41zM274.33 173.84v7.91h1.78c.36 0 .61.07.76.21.15.14.23.32.23.54 0 .22-.08.39-.23.53-.15.14-.41.21-.76.21h-5.04c-.36 0-.61-.07-.76-.21a.71.71 0 0 1-.23-.54c0-.22.08-.4.23-.53.15-.14.41-.21.76-.21h1.78v-6.42h-1.19c-.35 0-.61-.07-.76-.21a.71.71 0 0 1-.23-.54c0-.22.08-.4.23-.53.15-.14.41-.21.76-.21h2.67zM283.77 179l-4.81-2.66c-.24-.13-.4-.26-.48-.36a.665.665 0 0 1-.12-.41c0-.21.07-.39.22-.54.15-.15.33-.22.53-.22.13 0 .32.07.58.21l7.16 3.98-7.16 3.98c-.26.14-.45.22-.58.22-.2 0-.38-.08-.53-.22s-.22-.33-.22-.54c0-.16.04-.3.12-.41.08-.11.24-.23.48-.36l4.81-2.67zM235.25 112.65h28.16v4.45h-28.16zM266.38 112.65h42.98v4.45h-42.98zM235.25 122.29h57.8v4.45h-57.8zM235.25 131.93h17.78v4.45h-17.78zM267.22 131.93h42.14v4.45h-42.14zM256.1 131.93h8.06v4.45h-8.06zM263.19 160.17h8.06v4.45h-8.06zM281.34 141.34h13.9v4.45h-13.9zM235.24 150.76h13.9v4.45h-13.9zM235.25 141.34h42.98v4.45h-42.98zM252.2 150.76h44.89v4.45H252.2zM235.25 160.17h24.87v4.45h-24.87zM274.41 160.17h34.95v4.45h-34.95zM227.74 112.65h4.45v4.45h-4.45zM227.74 122.29h4.45v4.45h-4.45zM227.74 131.93h4.45v4.45h-4.45zM227.74 141.34h4.45v4.45h-4.45zM227.66 150.76h4.45v4.45h-4.45zM227.74 160.17h4.45v4.45h-4.45z"/></g><g filter="url(#a)"><path fill="#C7B298" d="M171.07 184.97l-43.37 43.36-21.9 7.3 7.3-21.91 43.36-43.36z"/><path fill="#BCCBD4" d="M151.348 175.474l3.478-3.478 14.602 14.601-3.479 3.48z"/><path fill="#EE78A4" d="M171.58 184.45l-2.15 2.15-14.6-14.6 2.15-2.15a4.822 4.822 0 0 1 6.83 0l7.77 7.77a4.822 4.822 0 0 1 0 6.83z"/><path fill="#0DA1DA" d="M113.096 213.72l38.247-38.247 14.602 14.602-38.247 38.247z"/><path opacity=".2" fill="#999" d="M117.97 218.59l47.291-47.29 4.865 4.865-47.291 47.29z"/><path opacity=".4" fill="#999" d="M127.7 228.33l43.93-43.93a4.744 4.744 0 0 0 0-6.72l-1.51-1.51-47.29 47.29 4.87 4.87z"/><path fill="#666" d="M105.8 235.63l8.34-2.78-5.56-5.57z"/></g></g></svg>