<svg version="1" xmlns="http://www.w3.org/2000/svg" xmlns:xlink="http://www.w3.org/1999/xlink" viewBox="0 0 373 279"><defs><filter id="a" x="-15%" y="-20%" width="200%" height="200%"><feOffset result="offOut" in="SourceAlpha" dy="5"/><feColorMatrix result="matrixOut" in="offOut" values="0 0 0 0 0 0 0 0 0 0 0 0 0 0 0 0 0 0 0.5 0"/><feGaussianBlur result="blurOut" in="matrixOut" stdDeviation="8"/><feBlend in="SourceGraphic" in2="blurOut"/></filter><filter id="d" x="0" y="0" width="200%" height="200%"><feOffset result="offOut" in="SourceAlpha" dy="5"/><feColorMatrix result="matrixOut" in="offOut" values="0 0 0 0 0 0 0 0 0 0 0 0 0 0 0 0 0 0 0.5 0"/><feGaussianBlur result="blurOut" in="matrixOut" stdDeviation="8"/><feBlend in="SourceGraphic" in2="blurOut"/></filter></defs><path fill="#003760" d="M-2.5-2h378v283h-378z"/><path fill="none" d="M-2.5-2h378v283h-378z"/><path fill="#002A4F" d="M375.5-2v254.66a57.38 57.38 0 0 1-10.53 3.08c-35.75 6.78-67.34-21.49-94.17-45.77-43.58-39.45-100.24-75.95-157.91-63.05-43.04 9.62-75.3 44.63-115.39 62.77V-2h378z"/><path fill="#002A4F" d="M255.51 242.59c-.77 1.43-1.72 2.8-2.84 4.08-12.57 14.29-28.05 25.89-45.15 34.33H98.03c-1.32-3.5-1.75-7.4-1.05-11.35 2.11-11.89 13.59-19.85 25.65-17.77 35.22 6.08 73.13-7.22 96.57-33.88 8.02-9.12 22.01-10.09 31.26-2.18 7.94 6.81 9.79 17.97 5.05 26.77z"/><path fill="none" d="M-2.5-2h378v283h-378z"/><g><path fill="#FFF" filter="url(#a)" d="M26 26h321v227H26z"/><path fill="#FFF" d="M44.5 123.74H134v120H44.5z"/><g fill="none" stroke="#E3E9EC" stroke-width="3" stroke-miterlimit="10"><path d="M134 239.39v4.35h-4.35"/><path stroke-dasharray="8.9782,8.9782" d="M120.67 243.74H53.34"/><path d="M48.85 243.74H44.5v-4.35"/><path stroke-dasharray="8.5618,8.5618" d="M44.5 230.83v-98.46"/><path d="M44.5 128.09v-4.35h4.35"/><path stroke-dasharray="8.9782,8.9782" d="M57.83 123.74h67.33"/><path d="M129.65 123.74H134v4.35"/><path stroke-dasharray="8.5618,8.5618" d="M134 136.65v98.46"/></g><path d="M70.09 128.65h20v20h-20z"/><path fill="#383838" d="M90.09 128.65h20v20h-20zM50.09 128.65h20v20h-20z"/><path fill="#FFF" d="M78.26 140.52l.53-.74c.3.28.66.5 1.09.5.52 0 .86-.27.86-.79 0-.51-.33-.78-.8-.78-.3 0-.45.06-.75.26l-.53-.34.14-2.57h2.88v.99h-1.86l-.09.95c.19-.09.36-.12.57-.12.87 0 1.62.5 1.62 1.58 0 1.13-.87 1.77-1.86 1.77-.84 0-1.4-.31-1.8-.71zM99.66 139.06h-1.41v-.83h1.41v-1.47h.86v1.47h1.41v.83h-1.41v1.47h-.86v-1.47zM59.11 138.23h1.97v.83h-1.97v-.83z"/><g opacity=".4"><path fill="#0DA1DA" d="M78.07 233h21v12h-21z"/><g fill="#FFF"><path d="M87.57 235h2v8h-2z"/><path d="M84.57 240v-2h8v2z"/></g></g><defs><path id="b" d="M27 26h320v236H27z"/></defs><clipPath id="c"><use xlink:href="#b" overflow="visible"/></clipPath><g clip-path="url(#c)"><path fill="#FFF" d="M44.5-23.08h392.87v133.57H44.5z"/><g fill="none" stroke="#E3E9EC" stroke-width="3" stroke-miterlimit="10"><path stroke-dasharray="8.9272,8.9272" d="M423.94 110.49H53.46"/><path d="M49 110.49h-4.5v-4.5"/><path stroke-dasharray="9.5825,9.5825" d="M44.5 96.41v-110.2"/></g></g><g clip-path="url(#c)"><path fill="#E6E5E5" d="M256.76 55.38c-22.36 5.07-38.89 24.05-60.08 32.83-18.9 7.83-41.25 6.83-59.36-2.66-6.21-3.26-11.87-7.51-16.82-12.48-.53 8.57-2.64 17.03-6.34 24.78-.99 2.08-2.11 4.09-3.32 6.05H350.5v-3.84c-5.26-3.95-10.24-8.49-14.93-12.79-21.75-19.96-50.03-38.41-78.81-31.89z"/><path fill="#CBCCCC" d="M113.77 3.29c-2.29 3.66-5.01 7.32-6.13 11.35-2.52 9.08 3.32 18.07 7.18 26.67 4.46 9.91 6.34 20.92 5.68 31.77 4.95 4.97 10.61 9.22 16.82 12.48 18.12 9.5 40.47 10.5 59.36 2.66 21.18-8.78 37.71-27.76 60.08-32.83 28.78-6.52 57.06 11.93 78.8 31.88 4.69 4.3 9.67 8.85 14.93 12.79V3.29H113.77z"/><path fill="#B2B3B3" d="M114.82 41.31c-3.87-8.6-9.71-17.59-7.18-26.67 1.12-4.04 3.84-7.69 6.13-11.35H51.09V103.9h59.75a65.69 65.69 0 0 0 3.32-6.05c3.7-7.74 5.82-16.21 6.34-24.78.67-10.84-1.22-21.85-5.68-31.76z"/><path fill="#CBCCCC" d="M51.88 74.93c17.14 0 31.03-13.89 31.03-31.03S69.02 12.87 51.88 12.87c-.27 0-.53.01-.79.02v62.03c.26 0 .53.01.79.01z" filter="url(#d)"/></g><path clip-path="url(#c)" fill="none" d="M51.09 26H350.5v100.61H51.09z"/><path fill="#999" d="M103 45.57h244v17H103zM145 72.98h202v17H145z"/><path fill="#FFF" d="M117.5 118.5h229v134h-229z"/><path fill="#E0E0E0" d="M346 119v133H118V119h228m1-1H117v135h230V118z"/><path fill="#0DA1DA" d="M218.44 96.8h26.48v15.13h-26.48z"/><g fill="#FFF"><path d="M230.42 99.32h2.52v10.09h-2.52z"/><path d="M226.637 105.622v-2.52h10.09v2.52z"/></g><path fill="#262524" d="M143.54 222.91v1.31h-17.98v-1.31h17.98zm0 2.62v1.31h-17.98v-1.31h17.98zm0 2.63v1.31h-17.98v-1.31h17.98zm0 2.62v1.31h-17.98v-1.31h17.98zm0 2.62v1.31h-17.98v-1.31h17.98zm0 2.62v1.31h-17.98v-1.31h17.98zm-5.13 2.62v1.31h-12.84v-1.31h12.84z"/><path fill="#0DA1DA" d="M117 118h230v28H117z"/><path fill="#0DA1DA" d="M231.68 118.45h-5.04l2.52-3.04 2.52-3.05 2.52 3.05 2.52 3.04z"/><path fill="#262524" d="M136.44 160.06v7.25h-10.87v-7.25h10.87zm8.45 4.83h-7.25v3.62h-7.25v3.62h14.49l-3.62-3.62 3.63-3.62zM125.57 192.5h19.32v14.49h-19.32V192.5zm3.02 1.2c-.5 0-.93.18-1.28.53-.35.35-.53.78-.53 1.28s.18.93.53 1.28c.35.35.78.53 1.28.53s.93-.18 1.28-.53c.35-.35.53-.78.53-1.28s-.18-.93-.53-1.28c-.35-.35-.78-.53-1.28-.53zm15.09 12.08v-4.83l-4.83-4.23-5.87 4.4 1.64 1.64-.6.6-3.62-3.62-3.62 3.62v2.42h16.9zM243.18 191.29v2.42h-8.45v-2.42h8.45zm8.45 3.63v1.21h-16.91v-1.21h16.91zm-2.41 2.41v1.21h-14.49v-1.21h14.49zm-6.04 3.62v2.42h-8.45v-2.42h8.45zm8.45 3.63v1.21h-16.91v-1.21h16.91zm-2.41 2.41v1.21h-14.49v-1.21h14.49zM244.39 158.86v2.42h-9.66v-2.42h9.66zm9.66 3.62v7.25h-19.32v-7.25h19.32zm-6.04 8.45v2.42h-4.83v-2.42h4.83zm6.04 0v2.42h-4.83v-2.42h4.83z"/><path fill="#0A79A4" d="M319 118h28v28h-28z"/><g fill="#FFF"><path d="M325.233 137.177l12.933-12.933 2.588 2.588-12.933 12.933z"/><path d="M325.233 126.825l2.588-2.588 12.933 12.933-2.588 2.588z"/></g><g fill="#FFF"><path d="M126.37 127.39h1.2l.97 5c.17 1 .36 1.98.53 2.97h.06c.21-.99.43-1.99.64-2.97l1.28-5h1.06l1.27 5c.22.97.45 1.98.67 2.97h.06c.17-.99.34-1.99.52-2.97l.97-5h1.12l-1.91 9.19h-1.4l-1.39-5.53c-.17-.71-.31-1.37-.45-2.09h-.06c-.14.71-.31 1.37-.46 2.09l-1.36 5.53h-1.39l-1.93-9.19zM137.99 127.63c0-.45.35-.74.8-.74s.8.29.8.74c0 .43-.35.74-.8.74s-.8-.31-.8-.74zm.21 2.14h1.15v6.81h-1.15v-6.81zM141.15 133.19c0-2.21 1.4-3.59 2.96-3.59.78 0 1.3.29 1.9.78l-.06-1.16v-2.62h1.16v9.97h-.95l-.1-.8h-.04c-.53.52-1.26.97-2.06.97-1.7.01-2.81-1.28-2.81-3.55zm4.81 1.65v-3.56c-.57-.52-1.09-.71-1.65-.71-1.09 0-1.96 1.05-1.96 2.6 0 1.63.69 2.61 1.88 2.61.62 0 1.17-.31 1.73-.94zM148.9 137.88c0-.57.38-1.12 1-1.54v-.06c-.34-.21-.6-.57-.6-1.11 0-.57.39-1.02.74-1.26v-.06c-.45-.36-.88-1.02-.88-1.83 0-1.48 1.18-2.42 2.56-2.42.38 0 .71.07.97.17h2.37v.88h-1.4c.32.31.56.83.56 1.4 0 1.46-1.11 2.37-2.49 2.37-.34 0-.71-.08-1.02-.24-.24.21-.43.43-.43.81 0 .43.28.74 1.2.74h1.32c1.58 0 2.38.49 2.38 1.63 0 1.26-1.33 2.35-3.45 2.35-1.69.01-2.83-.65-2.83-1.83zm5.14-.35c0-.63-.49-.84-1.37-.84h-1.18c-.27 0-.59-.03-.88-.11-.49.35-.7.76-.7 1.15 0 .73.74 1.19 1.98 1.19 1.29 0 2.15-.67 2.15-1.39zm-.89-5.5c0-.99-.64-1.58-1.44-1.58-.8 0-1.44.59-1.44 1.58 0 1 .66 1.63 1.44 1.63.79-.01 1.44-.64 1.44-1.63zM155.77 133.19c0-2.23 1.5-3.59 3.05-3.59 1.74 0 2.72 1.25 2.72 3.19 0 .24-.01.49-.04.66h-4.59c.08 1.44.97 2.37 2.27 2.37.64 0 1.19-.21 1.7-.53l.41.76c-.59.38-1.32.7-2.24.7-1.84 0-3.28-1.33-3.28-3.56zm4.76-.56c0-1.37-.62-2.12-1.68-2.12-.95 0-1.82.77-1.96 2.12h3.64zM163.27 134.48v-3.77h-1.01v-.87l1.06-.07.14-1.91h.97v1.91h1.83v.94h-1.83v3.78c0 .84.27 1.32 1.05 1.32.24 0 .55-.1.77-.18l.22.87c-.38.13-.84.25-1.26.25-1.45 0-1.94-.93-1.94-2.27zM166.91 135.81l.57-.77c.59.48 1.19.81 2 .81.9 0 1.34-.48 1.34-1.06 0-.7-.81-1.01-1.55-1.29-.97-.35-2.03-.81-2.03-1.96 0-1.09.87-1.93 2.34-1.93.85 0 1.6.35 2.12.77l-.55.73c-.46-.35-.95-.6-1.55-.6-.85 0-1.25.46-1.25.98 0 .64.74.88 1.51 1.18.98.36 2.07.77 2.07 2.06 0 1.11-.88 2.03-2.49 2.03-.96-.01-1.88-.42-2.53-.95z"/></g><g><path d="M153.08 163.09h2.34c1.6 0 2.71.54 2.71 1.93 0 .78-.41 1.47-1.15 1.71v.05c.94.19 1.6.81 1.6 1.88 0 1.55-1.22 2.3-2.98 2.3h-2.52v-7.87zm2.16 3.35c1.34 0 1.89-.49 1.89-1.29 0-.92-.63-1.26-1.85-1.26h-1.21v2.55h1.17zm.21 3.73c1.35 0 2.14-.49 2.14-1.55 0-.97-.76-1.41-2.14-1.41h-1.37v2.96h1.37zM159.68 169.45c0-1.27 1.1-1.91 3.58-2.17 0-.75-.25-1.47-1.2-1.47-.67 0-1.28.32-1.74.63l-.39-.68c.54-.35 1.35-.76 2.29-.76 1.42 0 2.03.95 2.03 2.4v3.58h-.82l-.08-.7h-.03c-.55.46-1.2.84-1.93.84-.98-.02-1.71-.62-1.71-1.67zm3.58.09v-1.62c-1.95.24-2.62.71-2.62 1.46 0 .66.45.93 1.02.93.57 0 1.04-.27 1.6-.77zM166.09 165.13h.81l.08.84h.03c.56-.55 1.16-.98 1.96-.98 1.23 0 1.78.79 1.78 2.28v3.69h-.99v-3.57c0-1.09-.33-1.55-1.1-1.55-.6 0-1.01.3-1.59.9v4.22h-.99v-5.83zM172.65 165.13h.81l.08.84h.03c.56-.55 1.16-.98 1.96-.98 1.23 0 1.78.79 1.78 2.28v3.69h-.99v-3.57c0-1.09-.33-1.55-1.1-1.55-.6 0-1.01.3-1.59.9v4.22h-.99v-5.83zM178.78 168.05c0-1.9 1.28-3.07 2.62-3.07 1.49 0 2.33 1.07 2.33 2.74 0 .21-.02.42-.05.56h-3.93c.07 1.24.83 2.04 1.94 2.04.56 0 1.02-.18 1.45-.47l.35.65c-.51.33-1.13.6-1.92.6-1.55 0-2.79-1.13-2.79-3.05zm4.08-.47c0-1.17-.53-1.8-1.44-1.8-.82 0-1.55.66-1.67 1.8h3.11zM185.17 165.13h.81l.08 1.06h.03c.41-.74 1-1.21 1.66-1.21.26 0 .44.03.62.12l-.19.87c-.2-.06-.33-.1-.56-.1-.49 0-1.08.36-1.47 1.34v3.74h-.99v-5.82z"/></g><g><path d="M153.08 196.09h1v7.87h-1v-7.87zM156.14 198.13h.82l.08.84h.03c.51-.55 1.12-.99 1.81-.99.89 0 1.37.43 1.61 1.11.61-.66 1.21-1.11 1.92-1.11 1.2 0 1.77.79 1.77 2.28v3.69h-.99v-3.57c0-1.09-.34-1.55-1.08-1.55-.45 0-.92.3-1.46.9v4.22h-.99v-3.57c0-1.09-.34-1.55-1.08-1.55-.44 0-.92.3-1.46.9v4.22h-.99v-5.82zM165.73 202.45c0-1.27 1.1-1.91 3.58-2.17 0-.75-.25-1.47-1.2-1.47-.67 0-1.28.32-1.74.63l-.39-.68c.54-.35 1.35-.76 2.29-.76 1.42 0 2.02.95 2.02 2.4v3.58h-.81l-.08-.7h-.03c-.55.46-1.2.84-1.93.84-.98-.02-1.71-.62-1.71-1.67zm3.58.09v-1.62c-1.95.24-2.61.71-2.61 1.46 0 .66.45.93 1.02.93.56 0 1.02-.27 1.59-.77zM171.69 205.08c0-.5.32-.97.86-1.32v-.05c-.3-.19-.52-.5-.52-.96 0-.48.34-.87.64-1.08v-.05c-.39-.3-.75-.87-.75-1.57 0-1.28 1-2.08 2.19-2.08.32 0 .61.06.82.14h2.03v.76h-1.2c.28.26.47.7.47 1.2 0 1.25-.94 2.02-2.13 2.02-.28 0-.61-.07-.87-.2-.21.18-.37.37-.37.69 0 .37.24.63 1.02.63h1.13c1.36 0 2.04.43 2.04 1.39 0 1.08-1.15 2.02-2.95 2.02-1.42.02-2.41-.54-2.41-1.54zm4.4-.31c0-.54-.41-.72-1.18-.72h-1.01c-.22 0-.5-.02-.76-.09-.42.3-.59.64-.59.98 0 .63.63 1.02 1.69 1.02 1.12 0 1.85-.58 1.85-1.19zm-.75-4.71c0-.85-.55-1.36-1.24-1.36s-1.24.51-1.24 1.36c0 .85.57 1.39 1.24 1.39s1.24-.54 1.24-1.39zM177.75 201.05c0-1.9 1.28-3.07 2.62-3.07 1.49 0 2.33 1.07 2.33 2.74 0 .21-.02.42-.05.56h-3.93c.07 1.24.83 2.04 1.94 2.04.56 0 1.02-.18 1.45-.47l.35.65c-.51.33-1.13.6-1.93.6-1.54 0-2.78-1.13-2.78-3.05zm4.08-.47c0-1.17-.53-1.8-1.44-1.8-.82 0-1.55.66-1.67 1.8h3.11z"/></g><g><path d="M262.08 163.09h4.54v.85h-3.54v2.66h3v.85h-3v3.52h-1v-7.88zM267.48 168.05c0-1.95 1.27-3.07 2.7-3.07 1.43 0 2.7 1.12 2.7 3.07 0 1.93-1.27 3.05-2.7 3.05-1.43 0-2.7-1.12-2.7-3.05zm4.38 0c0-1.34-.68-2.25-1.68-2.25-1 0-1.68.91-1.68 2.25s.68 2.23 1.68 2.23c1 0 1.68-.89 1.68-2.23zM274.42 165.13h.81l.08 1.06h.03c.41-.74 1-1.21 1.66-1.21.26 0 .44.03.62.12l-.19.87c-.2-.06-.33-.1-.56-.1-.49 0-1.08.36-1.47 1.34v3.74h-.99v-5.82zM278.58 165.13h.81l.08.84h.03c.51-.55 1.12-.99 1.81-.99.89 0 1.37.43 1.61 1.11.61-.66 1.21-1.11 1.92-1.11 1.2 0 1.77.79 1.77 2.28v3.69h-.99v-3.57c0-1.09-.34-1.55-1.08-1.55-.45 0-.92.3-1.46.9v4.22h-.99v-3.57c0-1.09-.34-1.55-1.08-1.55-.44 0-.92.3-1.46.9v4.22h-.99v-5.82z"/></g><g><path d="M262.08 196.09h1v7.02h3.43v.85h-4.44v-7.87zM267.46 202.45c0-1.27 1.1-1.91 3.58-2.17 0-.75-.25-1.47-1.2-1.47-.67 0-1.28.32-1.74.63l-.39-.68c.54-.35 1.35-.76 2.29-.76 1.42 0 2.02.95 2.02 2.4v3.58h-.81l-.08-.7h-.03c-.55.46-1.2.84-1.93.84-.98-.02-1.71-.62-1.71-1.67zm3.58.09v-1.62c-1.95.24-2.61.71-2.61 1.46 0 .66.45.93 1.02.93.56 0 1.02-.27 1.59-.77zM274.04 202.16v-3.22h-.87v-.75l.91-.06.12-1.63h.82v1.63h1.58v.8h-1.58v3.24c0 .71.23 1.13.9 1.13.21 0 .48-.08.67-.16l.19.75c-.33.11-.72.21-1.08.21-1.24 0-1.66-.78-1.66-1.94zM277.49 201.05c0-1.9 1.28-3.07 2.62-3.07 1.49 0 2.33 1.07 2.33 2.74 0 .21-.02.42-.05.56h-3.93c.07 1.24.83 2.04 1.94 2.04.56 0 1.02-.18 1.45-.47l.35.65c-.51.33-1.13.6-1.93.6-1.55 0-2.78-1.13-2.78-3.05zm4.07-.47c0-1.17-.53-1.8-1.44-1.8-.82 0-1.55.66-1.67 1.8h3.11zM283.22 203.29l.49-.65c.51.41 1.02.69 1.72.69.77 0 1.15-.41 1.15-.91 0-.6-.69-.87-1.33-1.1-.82-.3-1.74-.7-1.74-1.68 0-.93.75-1.65 2.01-1.65.73 0 1.36.3 1.81.65l-.47.63c-.4-.3-.81-.52-1.33-.52-.73 0-1.07.39-1.07.84 0 .55.63.77 1.29 1.01.84.32 1.78.66 1.78 1.77 0 .95-.75 1.73-2.13 1.73-.83 0-1.63-.35-2.18-.81zM289.07 202.16v-3.22h-.87v-.75l.91-.06.12-1.63h.82v1.63h1.58v.8h-1.58v3.24c0 .71.23 1.13.9 1.13.21 0 .48-.08.66-.16l.19.75c-.33.11-.72.21-1.08.21-1.23 0-1.65-.78-1.65-1.94zM294.99 202.45c0-1.27 1.1-1.91 3.58-2.17 0-.75-.25-1.47-1.2-1.47-.67 0-1.28.32-1.74.63l-.39-.68c.54-.35 1.36-.76 2.29-.76 1.42 0 2.02.95 2.02 2.4v3.58h-.81l-.08-.7h-.03c-.56.46-1.2.84-1.93.84-.97-.02-1.71-.62-1.71-1.67zm3.58.09v-1.62c-1.95.24-2.61.71-2.61 1.46 0 .66.45.93 1.02.93.56 0 1.03-.27 1.59-.77zM301.4 198.13h.82l.08 1.06h.03c.41-.74 1-1.21 1.66-1.21.26 0 .44.03.62.12l-.18.87c-.2-.06-.33-.1-.57-.1-.49 0-1.08.36-1.47 1.34v3.74h-.99v-5.82zM305.74 202.16v-3.22h-.87v-.75l.91-.06.12-1.63h.82v1.63h1.58v.8h-1.58v3.24c0 .71.23 1.13.9 1.13.21 0 .48-.08.66-.16l.19.75c-.33.11-.72.21-1.08.21-1.23 0-1.65-.78-1.65-1.94zM309.44 196.29c0-.39.3-.64.68-.64.38 0 .68.25.68.64 0 .37-.3.64-.68.64-.38 0-.68-.26-.68-.64zm.18 1.84h.99v5.83h-.99v-5.83zM312.14 201.05c0-1.95 1.31-3.07 2.8-3.07.76 0 1.29.32 1.71.68l-.5.65c-.34-.31-.7-.51-1.16-.51-1.05 0-1.83.91-1.83 2.25s.73 2.23 1.8 2.23c.53 0 1-.26 1.37-.58l.43.66c-.52.47-1.18.74-1.88.74-1.56 0-2.74-1.12-2.74-3.05zM318.05 202.79v-7.37h.99v7.45c0 .3.13.42.28.42.06 0 .1 0 .22-.02l.13.75c-.14.05-.31.09-.57.09-.75-.01-1.05-.48-1.05-1.32zM320.67 201.05c0-1.9 1.28-3.07 2.62-3.07 1.49 0 2.33 1.07 2.33 2.74 0 .21-.02.42-.05.56h-3.93c.07 1.24.83 2.04 1.94 2.04.56 0 1.02-.18 1.45-.47l.35.65c-.51.33-1.13.6-1.92.6-1.55 0-2.79-1.13-2.79-3.05zm4.08-.47c0-1.17-.53-1.8-1.44-1.8-.82 0-1.55.66-1.67 1.8h3.11zM326.41 203.29l.49-.65c.51.41 1.02.69 1.72.69.77 0 1.15-.41 1.15-.91 0-.6-.69-.87-1.33-1.1-.82-.3-1.74-.7-1.74-1.68 0-.93.75-1.65 2.01-1.65.73 0 1.36.3 1.81.65l-.47.63c-.4-.3-.81-.52-1.33-.52-.73 0-1.07.39-1.07.84 0 .55.63.77 1.29 1.01.84.32 1.78.66 1.78 1.77 0 .95-.75 1.73-2.13 1.73-.83 0-1.63-.35-2.18-.81z"/></g><g><path d="M154.71 227.94h-2.38v-.85h5.76v.85h-2.38v7.02h-1v-7.02zM158.98 232.05c0-1.9 1.28-3.07 2.62-3.07 1.49 0 2.33 1.07 2.33 2.74 0 .21-.02.42-.05.56h-3.93c.07 1.24.83 2.04 1.94 2.04.56 0 1.02-.18 1.45-.47l.35.65c-.51.33-1.13.6-1.93.6-1.54 0-2.78-1.13-2.78-3.05zm4.08-.47c0-1.17-.53-1.8-1.44-1.8-.82 0-1.55.66-1.67 1.8h3.11zM166.46 231.92l-1.76-2.79h1.07l.78 1.28c.18.32.38.65.57.97h.05c.18-.32.35-.65.53-.97l.71-1.28h1.03l-1.76 2.89 1.9 2.94h-1.07l-.86-1.35c-.2-.35-.42-.71-.63-1.05h-.05c-.2.34-.39.69-.59 1.05l-.79 1.35h-1.03l1.9-3.04zM170.89 233.16v-3.22h-.87v-.75l.91-.06.12-1.63h.82v1.63h1.58v.8h-1.58v3.24c0 .71.23 1.13.9 1.13.21 0 .48-.08.66-.16l.19.75c-.33.11-.72.21-1.08.21-1.23 0-1.65-.78-1.65-1.94z"/></g></g></svg>