<svg version="1" xmlns="http://www.w3.org/2000/svg" xmlns:xlink="http://www.w3.org/1999/xlink" viewBox="0 0 373 279"><defs><filter id="c" x="-15%" y="-20%" width="200%" height="200%"><feOffset result="offOut" in="SourceAlpha" dy="5"/><feColorMatrix result="matrixOut" in="offOut" values="0 0 0 0 0 0 0 0 0 0 0 0 0 0 0 0 0 0 0.5 0"/><feGaussianBlur result="blurOut" in="matrixOut" stdDeviation="8"/><feBlend in="SourceGraphic" in2="blurOut"/></filter></defs><path fill="#003760" d="M-2.5-2h378v283h-378z"/><path fill="none" d="M0 0h373v279H0z"/><path fill="#002A4F" d="M375.5 18.05v147.9c-10.15 10.01-22.2 17.88-36.05 20.54-35.75 6.87-67.34-21.77-94.17-46.38-43.58-39.97-100.24-76.95-157.92-63.88-33.57 7.61-60.58 30.86-89.86 49.45V-2h301.4l76.6 20.05zM225.2 281H47.07l44.53-77.14z"/><path fill="#003760" d="M375.5 18.05v78.17c-30.35-8.28-59.92-19.81-80.58-42.88-11.39-12.72-5.23-35.82 3.98-55.34l76.6 20.05z"/><path fill="none" d="M-2.5-2h378v283.45h-378z"/><g><defs><path id="a" d="M-400 26h320v236h-320z"/></defs><clipPath id="b"><use xlink:href="#a" overflow="visible"/></clipPath><g clip-path="url(#b)"><path fill="#FFF" d="M-382.5-23.08H10.37v133.57H-382.5z"/><g fill="none" stroke="#E3E9EC" stroke-width="3" stroke-miterlimit="10"><path d="M10.37 105.99v4.5h-4.5"/><path stroke-dasharray="9.5825,9.5825" d="M10.37-9v110.2"/></g></g><path fill="#FFF" filter="url(#c)" d="M26 26h321v227H26z"/><g fill="none" stroke="#E3E9EC" stroke-width="4" stroke-miterlimit="10"><path d="M332.86 69.8v6.81h-6.81"/><path stroke-dasharray="13.0116,13.0116" d="M313.04 76.61H59.31"/><path d="M52.81 76.61H46V69.8M46 49.98v-6.81h6.81"/><path stroke-dasharray="13.0116,13.0116" d="M65.82 43.17h253.73"/><path d="M326.05 43.17h6.81v6.81"/></g><g fill="none" stroke="#E3E9EC" stroke-width="4" stroke-miterlimit="10"><path d="M332.86 103.25v6.8h-6.81"/><path stroke-dasharray="13.0116,13.0116" d="M313.04 110.05H59.31"/><path d="M52.81 110.05H46v-6.8M46 83.43v-6.81h6.81"/><path stroke-dasharray="13.0116,13.0116" d="M65.82 76.62h253.73"/><path d="M326.05 76.62h6.81v6.81"/></g><g fill="none" stroke="#E3E9EC" stroke-width="4" stroke-miterlimit="10"><path d="M332.86 136.68v6.81h-6.81"/><path stroke-dasharray="13.0116,13.0116" d="M313.04 143.49H59.31"/><path d="M52.81 143.49H46v-6.81M46 116.86v-6.81h6.81"/><path stroke-dasharray="13.0116,13.0116" d="M65.82 110.05h253.73"/><path d="M326.05 110.05h6.81v6.81"/></g><g fill="none" stroke="#E3E9EC" stroke-width="4" stroke-miterlimit="10"><path d="M332.86 170.13v6.81h-6.81"/><path stroke-dasharray="13.0116,13.0116" d="M313.04 176.94H59.31"/><path d="M52.81 176.94H46v-6.81M46 150.31v-6.81h6.81"/><path stroke-dasharray="13.0116,13.0116" d="M65.82 143.5h253.73"/><path d="M326.05 143.5h6.81v6.81"/></g><g fill="none" stroke="#E3E9EC" stroke-width="4" stroke-miterlimit="10"><path d="M332.86 203.58v6.8h-6.81"/><path stroke-dasharray="13.0116,13.0116" d="M313.04 210.38H59.31"/><path d="M52.81 210.38H46v-6.8M46 183.76v-6.81h6.81"/><path stroke-dasharray="13.0116,13.0116" d="M65.82 176.95h253.73"/><path d="M326.05 176.95h6.81v6.81"/></g><g fill="none" stroke="#E3E9EC" stroke-width="4" stroke-miterlimit="10"><path d="M332.86 237.01v6.81h-6.81"/><path stroke-dasharray="13.0116,13.0116" d="M313.04 243.82H59.31"/><path d="M52.81 243.82H46v-6.81M46 217.19v-6.81h6.81"/><path stroke-dasharray="13.0116,13.0116" d="M65.82 210.38h253.73"/><path d="M326.05 210.38h6.81v6.81"/></g><path fill="#F7F7F7" d="M100.69 66.88c-.28 0-.51-.23-.51-.51V51.22c0-.28.23-.51.51-.51h109.44c.28 0 .51.23.51.51v15.15c0 .28-.23.51-.51.51H100.69z"/><path fill="#BDBBBB" d="M210.13 51.2l.02.02-.02 15.17-109.47-.02.02-15.17h109.45m0-.98H100.69c-.55 0-1 .45-1 1v15.15c0 .55.45 1 1 1h109.44c.55 0 1-.45 1-1V51.22c0-.55-.45-1-1-1z"/><path fill="#006391" d="M60.85 55.78h28.82v6.03H60.85z"/><path fill="#F7F7F7" d="M100.69 98.83c-.28 0-.51-.23-.51-.51V83.17c0-.28.23-.51.51-.51h109.44c.28 0 .51.23.51.51v15.15c0 .28-.23.51-.51.51H100.69z"/><path fill="#BDBBBB" d="M210.13 83.15l.02.02-.02 15.17-109.47-.02.02-15.17h109.45m0-.98H100.69c-.55 0-1 .45-1 1v15.15c0 .55.45 1 1 1h109.44c.55 0 1-.45 1-1V83.17c0-.55-.45-1-1-1z"/><path fill="#006391" d="M60.85 87.73h28.82v6.03H60.85z"/><path fill="#F7F7F7" d="M100.69 134.86c-.28 0-.51-.23-.51-.51V119.2c0-.28.23-.51.51-.51h109.44c.28 0 .51.23.51.51v15.14c0 .28-.23.51-.51.51H100.69z"/><path fill="#BDBBBB" d="M210.13 119.18l.02.02-.02 15.17-109.47-.02.02-15.17h109.45m0-.98H100.69c-.55 0-1 .45-1 1v15.15c0 .55.45 1 1 1h109.44c.55 0 1-.45 1-1V119.2c0-.55-.45-1-1-1z"/><path fill="#006391" d="M60.85 123.76h28.82v6.03H60.85z"/><path fill="#F7F7F7" d="M100.69 168.3c-.28 0-.51-.23-.51-.51v-15.14c0-.28.23-.51.51-.51h109.44c.28 0 .51.23.51.51v15.14c0 .28-.23.51-.51.51H100.69z"/><path fill="#BDBBBB" d="M210.13 152.62l.02.02-.02 15.17-109.47-.02.02-15.17h109.45m0-.97H100.69c-.55 0-1 .45-1 1v15.15c0 .55.45 1 1 1h109.44c.55 0 1-.45 1-1v-15.15c0-.56-.45-1-1-1z"/><path fill="#006391" d="M60.85 157.2h28.82v6.03H60.85z"/><path fill="#F7F7F7" d="M100.69 201.75c-.28 0-.51-.23-.51-.51V186.1c0-.28.23-.51.51-.51h109.44c.28 0 .51.23.51.51v15.14c0 .28-.23.51-.51.51H100.69z"/><path fill="#BDBBBB" d="M210.13 186.07l.02.02-.02 15.17-109.47-.02.02-15.17h109.45m0-.98H100.69c-.55 0-1 .45-1 1v15.15c0 .55.45 1 1 1h109.44c.55 0 1-.45 1-1v-15.15c0-.55-.45-1-1-1z"/><path fill="#006391" d="M60.85 190.65h28.82v6.03H60.85z"/><path fill="#F7F7F7" d="M100.69 235.19c-.28 0-.51-.23-.51-.51v-15.15c0-.28.23-.51.51-.51h109.44c.28 0 .51.23.51.51v15.15c0 .28-.23.51-.51.51H100.69z"/><path fill="#BDBBBB" d="M210.13 219.51l.02.02-.02 15.17-109.47-.02.02-15.17h109.45m0-.98H100.69c-.55 0-1 .45-1 1v15.15c0 .55.45 1 1 1h109.44c.55 0 1-.45 1-1v-15.15c0-.55-.45-1-1-1z"/><path fill="#006391" d="M60.85 224.09h28.82v6.03H60.85z"/><path fill="#0DA1DA" d="M223.02 96.8h26.48v15.13h-26.48z"/><g fill="#FFF"><path d="M235 99.32h2.52v10.09H235z"/><path d="M231.216 105.62v-2.52h10.09v2.52z"/></g><path fill="#FFF" d="M107.51 118.51h238.98v133.98H107.51z"/><path fill="#E0E0E0" d="M345.98 119.02v132.96H108.02V119.02h237.96M347 118H107v135h240V118z"/><path fill="#0DA1DA" d="M107 118h240v28H107z"/><path fill="#0A79A4" d="M319 118h28v28h-28z"/><g fill="#FFF"><path d="M328.16 139.42l-2.42-2.48 12.1-12.36 2.42 2.48z"/><path d="M340.26 136.94l-2.42 2.48-12.1-12.36 2.42-2.48z"/></g><path fill="#262524" d="M139.28 222.91v1.31h-18v-1.31h18zm0 2.63v1.31h-18v-1.31h18zm0 2.62v1.31h-18v-1.31h18zm0 2.63v1.31h-18v-1.31h18zm0 2.62v1.31h-18v-1.31h18zm0 2.63v1.31h-18v-1.31h18zm-5.14 2.62v1.31h-12.86v-1.31h12.86z"/><g fill="#FFF"><path d="M121.63 127.75h5.19v.98h-4.05v3.11h3.43v.98h-3.43v4.12h-1.14v-9.19zM127.61 133.55c0-2.28 1.45-3.59 3.09-3.59 1.63 0 3.09 1.3 3.09 3.59 0 2.25-1.45 3.56-3.09 3.56s-3.09-1.31-3.09-3.56zm5.01 0c0-1.57-.77-2.63-1.92-2.63-1.14 0-1.92 1.06-1.92 2.63 0 1.55.78 2.61 1.92 2.61 1.15-.01 1.92-1.06 1.92-2.61zM135.53 130.13h.93l.1 1.23h.04c.45-.85 1.14-1.4 1.89-1.4.29 0 .49.04.71.14l-.22 1.01c-.22-.07-.37-.11-.65-.11-.56 0-1.23.42-1.69 1.57v4.37h-1.13v-6.81zM140.29 130.13h.93l.1.98h.04c.58-.64 1.28-1.15 2.07-1.15 1.01 0 1.56.49 1.84 1.3.7-.77 1.39-1.3 2.19-1.3 1.37 0 2.03.92 2.03 2.66v4.31h-1.13v-4.16c0-1.28-.4-1.82-1.23-1.82-.52 0-1.06.35-1.67 1.05v4.93h-1.13v-4.16c0-1.28-.4-1.82-1.25-1.82-.49 0-1.06.35-1.67 1.05v4.93h-1.13v-6.8zM153.91 133.55c0-2.28 1.5-3.59 3.21-3.59.88 0 1.48.36 1.95.8l-.58.76c-.38-.35-.8-.6-1.33-.6-1.21 0-2.08 1.06-2.08 2.63 0 1.55.84 2.61 2.06 2.61.62 0 1.15-.31 1.56-.69l.49.77c-.6.55-1.36.87-2.15.87-1.77 0-3.13-1.31-3.13-3.56zM159.87 133.55c0-2.28 1.45-3.59 3.09-3.59 1.63 0 3.09 1.3 3.09 3.59 0 2.25-1.45 3.56-3.09 3.56-1.63 0-3.09-1.31-3.09-3.56zm5.01 0c0-1.57-.77-2.63-1.92-2.63-1.14 0-1.92 1.06-1.92 2.63 0 1.55.78 2.61 1.92 2.61 1.15-.01 1.92-1.06 1.92-2.61zM167.8 130.13h.93l.1.98h.04c.58-.64 1.28-1.15 2.07-1.15 1.01 0 1.56.49 1.84 1.3.7-.77 1.39-1.3 2.19-1.3 1.37 0 2.03.92 2.03 2.66v4.31h-1.13v-4.16c0-1.28-.4-1.82-1.23-1.82-.52 0-1.06.35-1.67 1.05v4.93h-1.13v-4.16c0-1.28-.4-1.82-1.25-1.82-.49 0-1.06.35-1.67 1.05v4.93h-1.13v-6.8zM179.17 130.13h.93l.1.78h.04c.6-.52 1.34-.95 2.13-.95 1.71 0 2.63 1.36 2.63 3.47 0 2.31-1.36 3.67-2.88 3.67-.62 0-1.23-.29-1.85-.78l.03 1.19v2.3h-1.13v-9.68zm4.66 3.31c0-1.5-.49-2.51-1.76-2.51-.56 0-1.13.32-1.78.92v3.57c.6.52 1.19.71 1.63.71 1.1.01 1.91-1.01 1.91-2.69zM186.28 133.55c0-2.28 1.45-3.59 3.09-3.59 1.63 0 3.09 1.3 3.09 3.59 0 2.25-1.45 3.56-3.09 3.56-1.63 0-3.09-1.31-3.09-3.56zm5.01 0c0-1.57-.77-2.63-1.92-2.63-1.14 0-1.92 1.06-1.92 2.63 0 1.55.78 2.61 1.92 2.61 1.15-.01 1.92-1.06 1.92-2.61zM194.21 130.13h.93l.1.98h.04c.63-.64 1.32-1.15 2.24-1.15 1.4 0 2.03.92 2.03 2.66v4.31h-1.13v-4.16c0-1.28-.38-1.82-1.26-1.82-.69 0-1.15.36-1.82 1.05v4.93h-1.13v-6.8zM201.21 133.55c0-2.23 1.47-3.59 2.99-3.59 1.7 0 2.66 1.25 2.66 3.19 0 .24-.01.49-.04.66h-4.5c.08 1.44.95 2.37 2.22 2.37.63 0 1.17-.21 1.66-.53l.4.76c-.58.38-1.29.7-2.2.7-1.77 0-3.19-1.33-3.19-3.56zm4.67-.56c0-1.37-.6-2.12-1.65-2.12-.93 0-1.78.77-1.92 2.12h3.57zM208.51 130.13h.93l.1.98h.04c.63-.64 1.32-1.15 2.24-1.15 1.4 0 2.03.92 2.03 2.66v4.31h-1.13v-4.16c0-1.28-.38-1.82-1.26-1.82-.69 0-1.15.36-1.82 1.05v4.93h-1.13v-6.8zM216.2 134.84v-3.77h-.99v-.87l1.04-.07.14-1.91h.95v1.91h1.8v.94h-1.8v3.78c0 .84.26 1.32 1.03 1.32.23 0 .54-.1.75-.18l.22.87c-.37.13-.82.25-1.23.25-1.43 0-1.91-.93-1.91-2.27zM219.77 136.17l.56-.77c.58.48 1.17.81 1.96.81.88 0 1.32-.48 1.32-1.06 0-.7-.79-1.01-1.52-1.29-.95-.35-1.99-.81-1.99-1.96 0-1.09.85-1.93 2.29-1.93.84 0 1.56.35 2.07.77l-.53.73c-.45-.35-.93-.6-1.52-.6-.84 0-1.22.46-1.22.98 0 .64.73.88 1.48 1.18.96.36 2.03.77 2.03 2.06 0 1.11-.86 2.03-2.44 2.03-.96-.01-1.86-.42-2.49-.95z"/></g><path fill="#0DA1DA" d="M236.26 118.02h-5.05l2.53-3.05 2.52-3.04 2.52 3.04 2.52 3.05z"/><path fill="#262524" d="M252.09 230.81l-9-6.19h18l-9 6.19zm0 1.4l9-6.19v12.09h-18v-12.09l9 6.19zM138 193.2v2.57h-18v-2.57h18zm0 5.15v2.57h-18v-2.57h18zm0 5.14v2.57h-18v-2.57h18zM245.42 162c-.39.39-.86.58-1.42.58-.56 0-1.03-.19-1.42-.58-.39-.39-.58-.86-.58-1.42 0-.56.19-1.03.58-1.42.39-.39.86-.58 1.42-.58.56 0 1.03.19 1.42.58.39.39.58.86.58 1.42 0 .56-.19 1.03-.58 1.42zm0 6.67c-.39.39-.86.58-1.42.58-.56 0-1.03-.19-1.42-.58-.39-.39-.58-.86-.58-1.42 0-.56.19-1.03.58-1.42.39-.39.86-.58 1.42-.58.56 0 1.03.19 1.42.58.39.39.58.86.58 1.42 0 .56-.19 1.03-.58 1.42zm0 6.66c-.39.39-.86.58-1.42.58-.56 0-1.03-.19-1.42-.58-.39-.39-.58-.86-.58-1.42 0-.56.19-1.03.58-1.42.39-.39.86-.58 1.42-.58.56 0 1.03.19 1.42.58.39.39.58.86.58 1.42 0 .56-.19 1.04-.58 1.42zM258 159.92v1.33h-10.67v-1.33H258zm0 6.66v1.33h-10.67v-1.33H258zm0 6.67v1.33h-10.67v-1.33H258zM120 158.25h18v18h-18v-18zm15.43 15.43v-12.86h-12.86v12.86h12.86zm-7.72-2.57l-3.54-3.54 1.61-1.61 1.93 1.93 4.5-4.5 1.61 1.61-6.11 6.11zM252.28 191.47c.87 0 1.71.12 2.54.36.83.24 1.6.6 2.33 1.06.35.23.69.49 1 .76.32.27.61.56.88.86v-3.04h2.25v6.75h-6.75v-2.25h2.78c-.32-.35-.66-.66-1.05-.94a6.67 6.67 0 0 0-1.21-.7c-.43-.19-.88-.34-1.34-.45-.47-.11-.94-.16-1.42-.16v-2.25zm0 15.75c.93 0 1.8-.18 2.62-.53a6.794 6.794 0 0 0 3.6-3.6c.35-.82.53-1.69.53-2.62h2.25c0 .61-.06 1.21-.18 1.79-.12.59-.29 1.15-.53 1.71-.23.54-.51 1.05-.83 1.53a8.811 8.811 0 0 1-2.44 2.44c-.48.32-.99.6-1.53.83-.55.23-1.12.41-1.71.53a9.064 9.064 0 0 1-4.33-.18c-.83-.24-1.6-.59-2.33-1.06-.35-.23-.69-.49-1-.76-.32-.27-.61-.56-.88-.86v3.04h-2.25v-6.75h6.75v2.25h-2.78c.32.35.66.66 1.05.94.38.27.79.51 1.21.7.43.19.88.34 1.34.45.49.09.96.15 1.44.15zm-9-6.75c0-.87.12-1.71.36-2.54.24-.83.59-1.6 1.06-2.33.23-.35.49-.69.76-1 .27-.32.56-.61.86-.88h-3.04v-2.25h6.75v6.75h-2.25v-2.78c-.35.32-.66.66-.94 1.05-.27.38-.51.79-.7 1.21-.19.43-.34.88-.45 1.34-.11.47-.16.94-.16 1.42h-2.25z"/><g opacity=".4"><path fill="#0DA1DA" d="M223.88 63.52h26.48v15.13h-26.48z"/><g fill="#FFF"><path d="M235.86 66.04h2.52v10.09h-2.52z"/><path d="M232.07 72.348v-2.52h10.09v2.52z"/></g></g><g><path d="M147.08 196.13h1.97c2.42 0 3.72 1.41 3.72 3.91s-1.3 3.96-3.67 3.96h-2.01v-7.87zm1.89 7.05c1.84 0 2.76-1.15 2.76-3.14 0-1.99-.92-3.09-2.76-3.09h-.89v6.23h.89zM154.36 198.17h.82l.08 1.06h.03c.41-.74 1-1.21 1.66-1.21.26 0 .44.03.62.12l-.18.87c-.2-.06-.33-.1-.57-.1-.49 0-1.08.35-1.47 1.34V204h-.99v-5.83zM158.09 201.09c0-1.95 1.27-3.07 2.7-3.07s2.7 1.12 2.7 3.07c0 1.93-1.27 3.05-2.7 3.05s-2.7-1.12-2.7-3.05zm4.39 0c0-1.34-.68-2.25-1.68-2.25s-1.68.91-1.68 2.25.68 2.23 1.68 2.23 1.68-.89 1.68-2.23zM165.03 198.17h.82l.08.67h.03c.53-.44 1.18-.82 1.86-.82 1.51 0 2.31 1.17 2.31 2.97 0 1.99-1.19 3.15-2.53 3.15-.53 0-1.08-.25-1.62-.68l.03 1.02v1.97h-.99v-8.28zm4.08 2.84c0-1.29-.44-2.15-1.54-2.15-.49 0-.99.27-1.56.8v3.05c.53.44 1.04.61 1.42.61.97-.01 1.68-.87 1.68-2.31zM171.21 200.61h2.75v.76h-2.75v-.76zM175.01 201.09c0-1.89 1.19-3.07 2.52-3.07.68 0 1.12.25 1.63.67l-.04-1v-2.25h.99V204h-.82l-.08-.69h-.03c-.45.45-1.07.83-1.77.83-1.46 0-2.4-1.1-2.4-3.05zm4.11 1.43v-3.05c-.5-.44-.95-.61-1.42-.61-.93 0-1.67.9-1.67 2.23 0 1.4.58 2.23 1.6 2.23.54-.01 1-.27 1.49-.8zM181.65 201.09c0-1.95 1.27-3.07 2.7-3.07 1.43 0 2.7 1.12 2.7 3.07 0 1.93-1.27 3.05-2.7 3.05-1.43 0-2.7-1.12-2.7-3.05zm4.38 0c0-1.34-.68-2.25-1.68-2.25-1 0-1.68.91-1.68 2.25s.68 2.23 1.68 2.23c1 0 1.68-.89 1.68-2.23zM187.89 198.17h1.01l.87 3.37c.13.55.24 1.08.35 1.63h.05c.13-.55.25-1.08.4-1.63l.9-3.37h.96l.91 3.37c.14.55.27 1.08.41 1.63h.05c.13-.55.24-1.07.36-1.63l.85-3.37h.94l-1.56 5.83h-1.2l-.84-3.13c-.14-.55-.25-1.09-.39-1.68h-.05c-.13.59-.24 1.14-.4 1.7l-.82 3.12h-1.15l-1.65-5.84zM197.2 198.17h.81l.08.84h.03c.56-.55 1.16-.98 1.96-.98 1.23 0 1.78.79 1.78 2.28V204h-.99v-3.57c0-1.09-.33-1.55-1.1-1.55-.6 0-1.01.3-1.59.9V204h-.99v-5.83z"/></g><g><path d="M147.08 228.13h1.03l2.85 4.95.85 1.63h.05c-.05-.79-.13-1.68-.13-2.5v-4.07h.95V236h-1.03l-2.85-4.95-.85-1.63h-.05c.05.8.13 1.64.13 2.46V236h-.95v-7.87zM154.67 233.86v-3.69h.99v3.57c0 1.09.33 1.55 1.1 1.55.6 0 1.01-.29 1.56-.98v-4.13h.99V236h-.81l-.08-.91h-.03c-.54.64-1.12 1.06-1.92 1.06-1.25-.01-1.8-.8-1.8-2.29zM161.28 230.17h.82l.08.85h.03c.51-.55 1.12-.99 1.81-.99.89 0 1.37.43 1.61 1.11.61-.65 1.21-1.11 1.92-1.11 1.2 0 1.77.79 1.77 2.28V236h-.99v-3.57c0-1.09-.34-1.55-1.08-1.55-.45 0-.92.29-1.46.9V236h-.99v-3.57c0-1.09-.34-1.55-1.09-1.55-.44 0-.92.29-1.46.9V236h-.99v-5.83zM170.79 233.09c0-1.9 1.28-3.07 2.62-3.07 1.49 0 2.33 1.07 2.33 2.74 0 .21-.02.42-.05.56h-3.93c.07 1.23.83 2.04 1.94 2.04.56 0 1.02-.18 1.45-.46l.35.65c-.51.33-1.13.61-1.92.61-1.55-.02-2.79-1.15-2.79-3.07zm4.08-.47c0-1.17-.53-1.8-1.44-1.8-.82 0-1.55.66-1.67 1.8h3.11zM177.18 230.17h.81l.08 1.06h.03c.41-.74 1-1.21 1.66-1.21.26 0 .44.03.62.12l-.19.87c-.2-.06-.33-.1-.56-.1-.49 0-1.08.35-1.47 1.34V236h-.99v-5.83zM181.16 228.33c0-.39.3-.64.68-.64.38 0 .68.25.68.64 0 .37-.3.64-.68.64-.38 0-.68-.26-.68-.64zm.18 1.84h.99V236h-.99v-5.83zM183.86 233.09c0-1.95 1.31-3.07 2.8-3.07.77 0 1.3.32 1.71.68l-.5.65c-.34-.31-.7-.52-1.16-.52-1.06 0-1.83.91-1.83 2.25s.73 2.23 1.8 2.23c.53 0 1.01-.26 1.37-.58l.43.66c-.52.47-1.19.74-1.88.74-1.56.01-2.74-1.11-2.74-3.04zM191.98 228.33c0-.39.3-.64.68-.64.38 0 .68.25.68.64 0 .37-.3.64-.68.64-.38 0-.68-.26-.68-.64zm.18 1.84h.99V236h-.99v-5.83zM195.12 230.17h.81l.08.84h.03c.56-.55 1.16-.98 1.96-.98 1.23 0 1.78.79 1.78 2.28V236h-.99v-3.57c0-1.09-.33-1.55-1.1-1.55-.6 0-1.01.3-1.59.9V236h-.99v-5.83zM201.68 230.17h.82l.08.67h.03c.53-.44 1.18-.82 1.86-.82 1.51 0 2.31 1.17 2.31 2.97 0 1.99-1.19 3.15-2.52 3.15-.53 0-1.08-.25-1.62-.68l.03 1.02v1.97h-.99v-8.28zm4.08 2.84c0-1.29-.44-2.15-1.54-2.15-.49 0-.99.27-1.56.8v3.05c.53.44 1.03.61 1.42.61.97-.01 1.68-.87 1.68-2.31zM208.26 233.86v-3.69h.99v3.57c0 1.09.33 1.55 1.1 1.55.6 0 1.01-.29 1.56-.98v-4.13h.99V236h-.82l-.08-.91h-.03c-.54.64-1.12 1.06-1.92 1.06-1.24-.01-1.79-.8-1.79-2.29zM215.04 234.2v-3.22h-.87v-.75l.91-.06.12-1.63h.82v1.63h1.58v.8h-1.58v3.24c0 .71.23 1.13.9 1.13.21 0 .47-.08.66-.16l.19.74c-.33.11-.72.22-1.08.22-1.23 0-1.65-.78-1.65-1.94z"/></g><g><path d="M146.62 167.07c0-2.54 1.5-4.09 3.49-4.09.96 0 1.71.46 2.17.97l-.55.65c-.41-.44-.94-.74-1.6-.74-1.49 0-2.48 1.22-2.48 3.18 0 1.98.94 3.22 2.44 3.22.75 0 1.32-.33 1.82-.88l.55.63c-.62.72-1.39 1.14-2.41 1.14-1.96-.01-3.43-1.52-3.43-4.08zM153.84 162.46h.99v2.34l-.04 1.2c.54-.53 1.13-.96 1.94-.96 1.23 0 1.78.79 1.78 2.28V171h-.99v-3.57c0-1.09-.33-1.55-1.1-1.55-.6 0-1.01.3-1.59.9V171h-.99v-8.54zM159.93 168.09c0-1.9 1.28-3.07 2.62-3.07 1.49 0 2.33 1.07 2.33 2.74 0 .21-.02.42-.04.56h-3.93c.07 1.23.83 2.04 1.94 2.04.56 0 1.02-.18 1.45-.46l.35.65c-.51.33-1.13.61-1.92.61-1.56-.02-2.8-1.15-2.8-3.07zm4.08-.47c0-1.17-.53-1.8-1.44-1.8-.82 0-1.55.66-1.67 1.8h3.11zM165.88 168.09c0-1.95 1.31-3.07 2.8-3.07.76 0 1.29.32 1.71.68l-.5.65c-.34-.31-.7-.52-1.16-.52-1.05 0-1.83.91-1.83 2.25s.73 2.23 1.8 2.23c.53 0 1-.26 1.37-.58l.43.66c-.52.47-1.18.74-1.88.74-1.56.01-2.74-1.11-2.74-3.04zM171.79 162.46h.97v5.79h.03l2.49-3.07h1.09l-1.95 2.34 2.21 3.49h-1.08l-1.7-2.8-1.09 1.27V171h-.97v-8.54zM178.64 170.4h-.03l-.09.6h-.79v-8.54h.99v2.34l-.03 1.04c.53-.46 1.18-.81 1.83-.81 1.51 0 2.32 1.17 2.32 2.97 0 1.99-1.19 3.15-2.52 3.15-.56-.01-1.16-.28-1.68-.75zm3.17-2.39c0-1.29-.44-2.15-1.54-2.15-.49 0-1.01.27-1.56.8v3.05c.51.44 1.03.61 1.42.61.97-.01 1.68-.87 1.68-2.31zM183.93 168.09c0-1.95 1.27-3.07 2.7-3.07 1.43 0 2.7 1.12 2.7 3.07 0 1.93-1.27 3.05-2.7 3.05-1.43 0-2.7-1.12-2.7-3.05zm4.38 0c0-1.34-.68-2.25-1.68-2.25-1 0-1.68.91-1.68 2.25s.68 2.23 1.68 2.23c1 0 1.68-.89 1.68-2.23zM191.96 167.96l-1.76-2.79h1.07l.78 1.28c.18.32.38.65.57.97h.05c.18-.32.35-.65.53-.97l.71-1.28h1.03l-1.76 2.89 1.91 2.94H194l-.86-1.36c-.2-.35-.42-.71-.63-1.05h-.05c-.2.33-.39.69-.59 1.05l-.79 1.36h-1.03l1.91-3.04z"/></g><g><path d="M267.98 198.17h.81l.08 1.06h.03c.41-.74 1-1.21 1.66-1.21.26 0 .44.03.62.12l-.19.87c-.2-.06-.33-.1-.56-.1-.49 0-1.08.35-1.47 1.34V204h-.99v-5.83zM271.71 201.09c0-1.9 1.28-3.07 2.62-3.07 1.49 0 2.33 1.07 2.33 2.74 0 .21-.02.42-.05.56h-3.93c.07 1.23.83 2.04 1.94 2.04.56 0 1.02-.18 1.45-.46l.35.65c-.51.33-1.13.61-1.92.61-1.55-.02-2.79-1.15-2.79-3.07zm4.08-.47c0-1.17-.53-1.8-1.44-1.8-.82 0-1.55.66-1.67 1.8h3.11zM277.73 200.07c0-2.54 1.5-4.09 3.49-4.09.96 0 1.7.46 2.17.97l-.55.65c-.41-.44-.93-.74-1.6-.74-1.49 0-2.48 1.22-2.48 3.18 0 1.98.94 3.22 2.44 3.22.75 0 1.32-.33 1.82-.88l.55.63c-.62.72-1.39 1.14-2.42 1.14-1.95-.01-3.42-1.52-3.42-4.08zM286.66 196.13h1.13l2.66 7.87h-1.06l-1.37-4.4c-.28-.88-.54-1.74-.79-2.65h-.05c-.24.91-.5 1.77-.78 2.65l-1.39 4.4H284l2.66-7.87zm-1.26 4.67h3.62v.8h-3.62v-.8zM291.57 196.13h2.25c1.76 0 2.95.59 2.95 2.32 0 1.66-1.18 2.43-2.91 2.43h-1.29V204h-1v-7.87zm2.17 3.93c1.38 0 2.03-.5 2.03-1.62 0-1.14-.7-1.5-2.08-1.5h-1.12v3.12h1.17zM300 196.98h-2.38v-.85h5.76v.85H301V204h-1v-7.02zM304.34 200.07c0-2.54 1.5-4.09 3.49-4.09.96 0 1.7.46 2.17.97l-.55.65c-.41-.44-.93-.74-1.6-.74-1.49 0-2.48 1.22-2.48 3.18 0 1.98.94 3.22 2.44 3.22.75 0 1.32-.33 1.82-.88l.55.63c-.62.72-1.39 1.14-2.42 1.14-1.95-.01-3.42-1.52-3.42-4.08zM311.65 196.13h1v3.3h3.66v-3.3h1V204h-1v-3.7h-3.66v3.7h-1v-7.87zM321.09 196.13h1.13l2.66 7.87h-1.06l-1.37-4.4c-.28-.88-.54-1.74-.79-2.65h-.05c-.24.91-.5 1.77-.78 2.65l-1.39 4.4h-1.02l2.67-7.87zm-1.26 4.67h3.62v.8h-3.62v-.8z"/></g><g><path d="M268.08 228.13h4.54v.85h-3.54v2.47h2.98v.85h-2.98v2.86h3.65v.84h-4.66v-7.87zM274.31 230.17h.82l.08.85h.03c.51-.55 1.12-.99 1.81-.99.89 0 1.37.43 1.61 1.11.61-.65 1.21-1.11 1.92-1.11 1.2 0 1.77.79 1.77 2.28V236h-.99v-3.57c0-1.09-.34-1.55-1.08-1.55-.45 0-.92.29-1.46.9V236h-.99v-3.57c0-1.09-.34-1.55-1.08-1.55-.44 0-.92.29-1.46.9V236h-.99v-5.83zM283.89 234.49c0-1.27 1.1-1.9 3.58-2.18 0-.75-.25-1.47-1.2-1.47-.67 0-1.28.32-1.74.63l-.39-.68c.54-.35 1.36-.76 2.29-.76 1.42 0 2.02.95 2.02 2.4V236h-.81l-.08-.7h-.03c-.56.46-1.2.84-1.93.84-.97 0-1.71-.6-1.71-1.65zm3.58.09v-1.62c-1.95.23-2.61.71-2.61 1.46 0 .66.45.93 1.02.93.57 0 1.03-.27 1.59-.77zM290.12 228.33c0-.39.3-.64.68-.64.38 0 .68.25.68.64 0 .37-.3.64-.68.64-.38 0-.68-.26-.68-.64zm.18 1.84h.99V236h-.99v-5.83zM293.26 234.83v-7.37h.99v7.45c0 .3.13.42.27.42.06 0 .1 0 .22-.02l.13.75c-.14.05-.31.09-.57.09-.74-.01-1.04-.48-1.04-1.32z"/></g><g><path d="M268.08 163.13h2.46c1.6 0 2.75.58 2.75 2.21 0 1.57-1.15 2.33-2.75 2.33h-1.46V171h-1v-7.87zm2.32 3.73c1.23 0 1.9-.5 1.9-1.52 0-1.04-.67-1.4-1.9-1.4h-1.32v2.92h1.32zm-.06.54l.79-.52 2.4 4.12h-1.14l-2.05-3.6zM274.45 169.49c0-1.27 1.1-1.9 3.58-2.18 0-.75-.25-1.47-1.2-1.47-.67 0-1.28.32-1.74.63l-.39-.68c.54-.35 1.35-.76 2.29-.76 1.42 0 2.03.95 2.03 2.4V171h-.82l-.08-.7h-.03c-.55.46-1.2.84-1.93.84-.98 0-1.71-.6-1.71-1.65zm3.58.09v-1.62c-1.95.23-2.62.71-2.62 1.46 0 .66.45.93 1.02.93.57 0 1.04-.27 1.6-.77zM280.44 168.09c0-1.89 1.19-3.07 2.52-3.07.68 0 1.12.25 1.63.67l-.04-1v-2.25h.99V171h-.81l-.08-.69h-.03c-.45.45-1.07.83-1.77.83-1.46 0-2.41-1.1-2.41-3.05zm4.12 1.43v-3.05c-.5-.44-.95-.61-1.42-.61-.93 0-1.67.9-1.67 2.23 0 1.4.58 2.23 1.6 2.23.53-.01 1-.27 1.49-.8zM287.34 163.33c0-.39.3-.64.68-.64.38 0 .68.25.68.64 0 .37-.3.64-.68.64-.38 0-.68-.26-.68-.64zm.18 1.84h.99V171h-.99v-5.83zM290.04 168.09c0-1.95 1.27-3.07 2.7-3.07s2.7 1.12 2.7 3.07c0 1.93-1.27 3.05-2.7 3.05s-2.7-1.12-2.7-3.05zm4.38 0c0-1.34-.68-2.25-1.68-2.25s-1.68.91-1.68 2.25.68 2.23 1.68 2.23 1.68-.89 1.68-2.23zM300.29 170.4h-.03l-.09.6h-.79v-8.54h.99v2.34l-.03 1.04c.53-.46 1.18-.81 1.83-.81 1.51 0 2.32 1.17 2.32 2.97 0 1.99-1.19 3.15-2.53 3.15-.55-.01-1.16-.28-1.67-.75zm3.17-2.39c0-1.29-.44-2.15-1.54-2.15-.49 0-1.01.27-1.56.8v3.05c.51.44 1.04.61 1.42.61.97-.01 1.68-.87 1.68-2.31zM305.93 168.86v-3.69h.99v3.57c0 1.09.33 1.55 1.1 1.55.6 0 1.01-.29 1.56-.98v-4.13h.99V171h-.81l-.08-.91h-.03c-.54.64-1.12 1.06-1.92 1.06-1.25-.01-1.8-.8-1.8-2.29zM312.71 169.2v-3.22h-.87v-.75l.91-.06.12-1.63h.82v1.63h1.58v.8h-1.58v3.24c0 .71.23 1.13.9 1.13.21 0 .47-.08.66-.16l.19.74c-.33.11-.72.22-1.08.22-1.23 0-1.65-.78-1.65-1.94zM316.77 169.2v-3.22h-.87v-.75l.91-.06.12-1.63h.82v1.63h1.58v.8h-1.58v3.24c0 .71.23 1.13.9 1.13.21 0 .47-.08.66-.16l.19.74c-.33.11-.72.22-1.08.22-1.23 0-1.65-.78-1.65-1.94zM320.22 168.09c0-1.95 1.27-3.07 2.7-3.07s2.7 1.12 2.7 3.07c0 1.93-1.27 3.05-2.7 3.05s-2.7-1.12-2.7-3.05zm4.38 0c0-1.34-.68-2.25-1.68-2.25s-1.68.91-1.68 2.25.68 2.23 1.68 2.23 1.68-.89 1.68-2.23zM327.15 165.17h.82l.08.84h.03c.55-.55 1.15-.98 1.96-.98 1.23 0 1.78.79 1.78 2.28V171h-.99v-3.57c0-1.09-.33-1.55-1.1-1.55-.6 0-1.01.3-1.59.9V171h-.99v-5.83zM333.07 170.33l.49-.65c.51.41 1.02.69 1.72.69.77 0 1.15-.41 1.15-.9 0-.6-.69-.87-1.33-1.11-.82-.3-1.74-.7-1.74-1.68 0-.93.75-1.66 2.01-1.66.73 0 1.36.3 1.81.66l-.47.63c-.4-.3-.81-.52-1.33-.52-.73 0-1.07.39-1.07.84 0 .55.63.77 1.29 1.01.84.32 1.78.66 1.78 1.77 0 .95-.75 1.73-2.13 1.73-.83 0-1.63-.35-2.18-.81z"/></g></g></svg>